<svg id="canvas" width="584.946" height="137.636" viewBox="195.623 226.314 584.946 137.636" preserveAspectRatio="xMidYMid meet" class="h-full w-full max-w-4xl text-primary transition-opacity duration-300 opacity-100" xmlns="http://www.w3.org/2000/svg"><g id="canvas-strokes"><path d="M 243.27,287.34 C 242.40 287.03, 241.40 287.14, 239.60 287.60 C 237.80 288.06, 236.63 288.25, 234.28 289.64 C 231.94 291.02, 230.39 292.25, 227.87 294.53 C 225.35 296.80, 224.30 298.06, 221.67 301.01 C 219.04 303.96, 217.37 305.86, 214.72 309.28 C 212.07 312.69, 210.69 314.47, 208.42 318.09 C 206.14 321.71, 205.07 323.67, 203.33 327.38 C 201.60 331.08, 200.67 333.01, 199.73 336.61 C 198.80 340.21, 198.55 342.08, 198.64 345.37 C 198.73 348.66, 198.92 350.41, 200.20 353.06 C 201.47 355.71, 202.65 357.03, 205.00 358.61 C 207.35 360.18, 208.90 360.78, 211.96 360.92 C 215.02 361.07, 216.74 360.68, 220.30 359.32 C 223.86 357.96, 225.84 356.80, 229.75 354.14 C 233.66 351.47, 235.58 349.76, 239.85 345.99 C 244.12 342.21, 246.47 340.03, 251.11 335.28 C 255.75 330.53, 258.26 327.67, 263.05 322.23 C 267.84 316.79, 270.34 313.89, 275.06 308.08 C 279.79 302.27, 282.19 299.19, 286.68 293.20 C 291.18 287.21, 293.63 283.89, 297.54 278.13 C 301.45 272.37, 303.08 269.52, 306.24 264.40 C 309.40 259.29, 310.85 257.02, 313.35 252.56 C 315.84 248.10, 317.04 245.79, 318.71 242.10 C 320.39 238.41, 321.27 236.56, 321.72 234.10 C 322.16 231.64, 321.89 230.53, 320.95 229.79 C 320.01 229.05, 318.85 229.12, 317.03 230.38 C 315.22 231.64, 314.09 232.94, 311.86 236.08 C 309.64 239.22, 308.51 241.50, 305.92 246.08 C 303.32 250.66, 301.69 253.52, 298.88 258.99 C 296.08 264.45, 294.73 267.47, 291.89 273.41 C 289.05 279.35, 287.56 282.52, 284.68 288.68 C 281.80 294.84, 280.25 298.18, 277.49 304.20 C 274.72 310.22, 273.32 313.36, 270.85 318.76 C 268.39 324.17, 267.10 326.97, 265.15 331.23 C 263.20 335.49, 262.03 337.23, 261.10 340.06 C 260.17 342.89, 260.07 344.09, 260.50 345.37 C 260.93 346.66, 261.71 346.89, 263.25 346.50 C 264.78 346.10, 266.03 345.35, 268.18 343.39 C 270.33 341.44, 271.40 339.58, 273.99 336.71 C 276.58 333.84, 278.17 332.07, 281.15 329.04 C 284.14 326.01, 285.65 324.31, 288.91 321.55 C 292.17 318.79, 294.08 317.29, 297.46 315.25 C 300.84 313.20, 302.74 312.57, 305.80 311.31 C 308.87 310.05, 310.36 309.50, 312.79 308.93 C 315.22 308.37, 316.32 308.24, 317.97 308.50 C 319.62 308.76, 320.37 309.18, 321.04 310.22 C 321.71 311.26, 321.48 311.72, 321.33 313.72 C 321.17 315.72, 320.87 317.40, 320.27 320.23 C 319.66 323.07, 319.26 324.79, 318.32 327.90 C 317.38 331.01, 316.53 332.88, 315.57 335.80 C 314.60 338.71, 314.04 340.09, 313.48 342.47 C 312.92 344.85, 312.70 345.90, 312.77 347.69 C 312.84 349.47, 312.98 350.31, 313.83 351.38 C 314.68 352.44, 315.47 352.96, 317.01 353.01 C 318.56 353.06, 319.76 352.74, 321.55 351.63 C 323.35 350.51, 324.15 349.55, 326.00 347.44 C 327.84 345.33, 328.63 343.81, 330.77 341.06 C 332.91 338.32, 334.25 336.77, 336.71 333.72 C 339.17 330.68, 340.42 329.02, 343.08 325.84 C 345.75 322.67, 347.19 320.96, 350.03 317.84 C 352.87 314.73, 354.42 313.12, 357.28 310.27 C 360.15 307.42, 361.44 305.95, 364.37 303.59 C 367.29 301.23, 369.08 300.12, 371.91 298.47 C 374.75 296.81, 376.18 296.23, 378.53 295.31 C 380.89 294.40, 381.98 294.12, 383.70 293.90 C 385.43 293.67, 386.26 293.65, 387.16 294.19 C 388.07 294.73, 388.14 295.22, 388.23 296.62 C 388.31 298.02, 388.14 298.81, 387.60 301.20 C 387.05 303.58, 386.61 305.40, 385.50 308.55 C 384.39 311.70, 383.59 313.59, 382.04 316.95 C 380.49 320.31, 379.38 322.21, 377.75 325.34 C 376.12 328.47, 375.02 330.04, 373.89 332.60 C 372.76 335.15, 372.31 336.34, 372.09 338.12 C 371.86 339.89, 372.01 340.72, 372.76 341.46 C 373.51 342.20, 374.36 342.28, 375.83 341.80 C 377.29 341.33, 378.28 340.63, 380.09 339.09 C 381.90 337.56, 382.87 336.35, 384.86 334.13 C 386.85 331.90, 387.78 330.52, 390.03 327.98 C 392.28 325.45, 393.64 324.01, 396.10 321.44 C 398.57 318.87, 399.98 317.41, 402.34 315.12 C 404.70 312.84, 405.77 311.79, 407.91 310.02 C 410.06 308.25, 411.26 307.56, 413.06 306.27 C 414.86 304.99, 415.76 304.44, 416.91 303.59 C 418.07 302.73, 418.51 302.24, 418.84 302.00 C 419.17 301.76, 418.72 301.86, 418.55 302.38 C 418.38 302.90, 418.25 303.41, 417.99 304.61 C 417.73 305.81, 417.51 306.60, 417.25 308.37 C 416.99 310.15, 416.77 311.42, 416.69 313.48 C 416.61 315.54, 416.66 316.70, 416.84 318.66 C 417.02 320.63, 417.12 321.58, 417.60 323.30 C 418.08 325.03, 418.18 325.81, 419.25 327.28 C 420.31 328.75, 421.10 329.77, 422.92 330.65 C 424.73 331.53, 425.99 331.77, 428.32 331.69 C 430.64 331.62, 431.94 331.08, 434.53 330.28 C 437.12 329.48, 438.34 328.93, 441.25 327.68 C 444.17 326.43, 445.85 325.71, 449.10 324.06 C 452.36 322.40, 454.13 321.22, 457.52 319.41 C 460.91 317.60, 462.73 316.65, 466.06 315.02 C 469.39 313.39, 471.07 312.61, 474.15 311.26 C 477.22 309.92, 478.88 309.38, 481.43 308.29 C 483.99 307.20, 485.11 306.54, 486.91 305.82 C 488.71 305.10, 489.53 304.82, 490.44 304.68 C 491.35 304.53, 491.34 304.65, 491.46 305.09 C 491.59 305.54, 491.37 305.94, 491.07 306.89 C 490.78 307.83, 490.47 308.41, 489.98 309.83 C 489.49 311.25, 489.15 312.33, 488.63 313.99 C 488.10 315.65, 487.90 316.48, 487.36 318.12 C 486.82 319.75, 486.44 320.62, 485.92 322.15 C 485.39 323.69, 485.20 324.42, 484.73 325.79 C 484.26 327.15, 484.07 327.86, 483.58 328.98 C 483.09 330.10, 482.81 330.49, 482.28 331.39 C 481.75 332.28, 481.39 332.83, 480.93 333.45 C 480.47 334.06, 480.38 334.19, 479.97 334.45 C 479.57 334.72, 479.25 334.46, 478.90 334.76 C 478.55 335.05, 478.19 335.36, 478.23 335.93 C 478.27 336.50, 478.83 337.11, 479.10 337.60 C 479.37 338.09, 479.24 338.10, 479.57 338.38 C 479.90 338.66, 479.86 338.90, 480.73 338.99 C 481.61 339.09, 482.33 339.12, 483.94 338.86 C 485.56 338.60, 486.57 338.35, 488.80 337.71 C 491.02 337.07, 492.18 336.73, 495.07 335.66 C 497.96 334.58, 499.45 333.76, 503.24 332.33 C 507.03 330.89, 509.48 330.17, 514.04 328.48 C 518.59 326.80, 521.12 325.75, 526.01 323.89 C 530.90 322.03, 533.44 321.00, 538.49 319.19 C 543.54 317.37, 546.27 316.55, 551.26 314.82 C 556.25 313.08, 558.75 312.26, 563.45 310.50 C 568.14 308.73, 570.49 307.72, 574.74 305.99 C 579.00 304.27, 581.21 303.36, 584.71 301.89 C 588.21 300.41, 589.88 299.83, 592.23 298.61 C 594.59 297.40, 595.74 296.63, 596.48 295.80 C 597.22 294.97, 597.04 294.52, 595.92 294.46 C 594.80 294.40, 593.40 294.62, 590.89 295.50 C 588.38 296.38, 586.83 297.29, 583.38 298.87 C 579.93 300.45, 577.82 301.56, 573.65 303.40 C 569.48 305.25, 567.17 306.27, 562.52 308.08 C 557.88 309.90, 555.41 310.71, 550.43 312.45 C 545.46 314.20, 542.72 315.03, 537.65 316.81 C 532.58 318.59, 530.00 319.60, 525.08 321.35 C 520.16 323.11, 517.63 324.09, 513.03 325.59 C 508.43 327.09, 505.96 327.74, 502.08 328.85 C 498.21 329.97, 496.59 330.43, 493.67 331.16 C 490.75 331.90, 489.63 332.08, 487.49 332.53 C 485.36 332.99, 484.43 333.19, 483.00 333.46 C 481.58 333.73, 481.21 333.67, 480.35 333.89 C 479.50 334.12, 479.17 334.13, 478.72 334.58 C 478.26 335.04, 478.03 335.52, 478.07 336.17 C 478.12 336.82, 478.55 337.40, 478.94 337.84 C 479.32 338.28, 479.42 338.36, 479.99 338.37 C 480.57 338.39, 480.99 338.31, 481.82 337.91 C 482.66 337.50, 483.32 337.21, 484.18 336.36 C 485.03 335.51, 485.41 334.77, 486.08 333.65 C 486.76 332.52, 486.96 332.00, 487.53 330.73 C 488.10 329.46, 488.42 328.70, 488.95 327.30 C 489.47 325.89, 489.57 325.20, 490.15 323.71 C 490.73 322.22, 491.16 321.45, 491.86 319.86 C 492.57 318.27, 493.01 317.51, 493.68 315.76 C 494.35 314.01, 494.93 312.88, 495.22 311.10 C 495.50 309.33, 495.41 308.40, 495.12 306.89 C 494.82 305.38, 494.63 304.62, 493.74 303.55 C 492.85 302.49, 492.27 301.89, 490.66 301.57 C 489.05 301.25, 487.88 301.40, 485.69 301.94 C 483.49 302.49, 482.32 303.11, 479.69 304.28 C 477.06 305.45, 475.59 306.29, 472.54 307.79 C 469.49 309.28, 467.80 310.09, 464.45 311.76 C 461.10 313.43, 459.22 314.39, 455.81 316.13 C 452.39 317.87, 450.62 319.00, 447.38 320.46 C 444.14 321.91, 442.45 322.40, 439.59 323.41 C 436.72 324.42, 435.39 324.77, 433.05 325.49 C 430.72 326.21, 429.60 326.73, 427.91 326.99 C 426.23 327.26, 425.70 327.23, 424.61 326.83 C 423.52 326.43, 423.08 325.87, 422.48 324.99 C 421.88 324.11, 421.78 323.73, 421.62 322.44 C 421.46 321.16, 421.57 320.25, 421.66 318.55 C 421.76 316.86, 421.83 315.88, 422.10 313.97 C 422.38 312.06, 422.91 310.92, 423.05 309.01 C 423.19 307.09, 423.18 305.96, 422.81 304.41 C 422.44 302.86, 421.98 302.21, 421.18 301.25 C 420.37 300.30, 420.01 299.83, 418.79 299.62 C 417.58 299.40, 416.73 299.57, 415.11 300.19 C 413.48 300.82, 412.66 301.45, 410.66 302.75 C 408.66 304.05, 407.34 304.78, 405.11 306.68 C 402.88 308.58, 401.88 309.86, 399.51 312.26 C 397.13 314.65, 395.75 316.10, 393.24 318.65 C 390.72 321.20, 389.36 322.65, 386.92 324.99 C 384.48 327.34, 383.20 328.36, 381.04 330.38 C 378.87 332.40, 377.58 333.34, 376.10 335.10 C 374.61 336.86, 374.10 338.01, 373.62 339.18 C 373.13 340.34, 373.34 340.92, 373.67 340.94 C 374.01 340.95, 374.44 340.55, 375.30 339.26 C 376.17 337.98, 376.80 336.95, 378.00 334.52 C 379.20 332.10, 379.78 330.30, 381.31 327.13 C 382.84 323.96, 383.98 322.07, 385.65 318.67 C 387.33 315.27, 388.32 313.46, 389.68 310.15 C 391.04 306.83, 392.03 304.98, 392.47 302.11 C 392.91 299.24, 392.58 297.92, 391.87 295.79 C 391.16 293.67, 390.59 292.62, 388.92 291.49 C 387.25 290.35, 385.89 290.15, 383.51 290.13 C 381.13 290.11, 379.74 290.37, 377.03 291.40 C 374.32 292.44, 372.92 293.38, 369.96 295.30 C 367.00 297.22, 365.21 298.46, 362.22 301.01 C 359.23 303.55, 357.93 305.08, 355.02 308.02 C 352.11 310.95, 350.57 312.55, 347.68 315.68 C 344.79 318.81, 343.32 320.54, 340.56 323.67 C 337.80 326.80, 336.52 328.42, 333.90 331.32 C 331.28 334.23, 329.85 335.70, 327.46 338.19 C 325.06 340.69, 323.72 341.86, 321.93 343.79 C 320.15 345.72, 319.63 346.63, 318.52 347.85 C 317.42 349.07, 316.93 349.43, 316.39 349.89 C 315.86 350.35, 315.88 350.53, 315.86 350.16 C 315.85 349.78, 315.96 349.32, 316.32 348.02 C 316.68 346.72, 316.95 345.79, 317.66 343.65 C 318.37 341.50, 318.87 340.15, 319.88 337.27 C 320.89 334.40, 321.68 332.49, 322.72 329.27 C 323.76 326.06, 324.49 324.33, 325.08 321.20 C 325.67 318.06, 325.94 316.19, 325.67 313.60 C 325.39 311.02, 325.07 309.99, 323.70 308.26 C 322.32 306.53, 321.14 305.60, 318.78 304.94 C 316.43 304.29, 314.80 304.36, 311.91 304.98 C 309.03 305.59, 307.60 306.52, 304.36 308.01 C 301.13 309.51, 299.24 310.25, 295.74 312.47 C 292.24 314.68, 290.26 316.28, 286.86 319.10 C 283.46 321.91, 281.94 323.63, 278.75 326.54 C 275.55 329.45, 273.75 330.99, 270.88 333.64 C 268.01 336.29, 266.24 337.60, 264.42 339.79 C 262.60 341.98, 262.25 343.45, 261.78 344.58 C 261.32 345.71, 261.57 346.11, 262.10 345.46 C 262.63 344.80, 263.34 343.94, 264.43 341.30 C 265.53 338.66, 265.89 336.59, 267.58 332.26 C 269.27 327.93, 270.52 325.10, 272.87 319.66 C 275.22 314.22, 276.61 311.07, 279.34 305.04 C 282.06 299.02, 283.60 295.67, 286.49 289.53 C 289.39 283.39, 290.90 280.22, 293.80 274.34 C 296.71 268.46, 298.08 265.46, 301.03 260.13 C 303.98 254.80, 305.74 252.02, 308.56 247.69 C 311.39 243.35, 312.97 241.43, 315.16 238.46 C 317.35 235.48, 318.48 234.43, 319.50 232.82 C 320.52 231.21, 320.47 230.34, 320.26 230.41 C 320.04 230.47, 319.29 231.05, 318.42 233.15 C 317.56 235.25, 317.36 237.26, 315.93 240.92 C 314.50 244.58, 313.55 246.96, 311.26 251.44 C 308.97 255.93, 307.54 258.21, 304.49 263.34 C 301.43 268.47, 299.83 271.32, 295.98 277.08 C 292.13 282.84, 289.71 286.15, 285.24 292.12 C 280.78 298.09, 278.38 301.16, 273.65 306.93 C 268.93 312.69, 266.41 315.58, 261.60 320.94 C 256.78 326.30, 254.25 329.13, 249.57 333.75 C 244.89 338.38, 242.51 340.50, 238.21 344.06 C 233.91 347.62, 231.91 349.20, 228.07 351.55 C 224.24 353.90, 222.24 354.77, 219.05 355.81 C 215.86 356.85, 214.52 356.85, 212.14 356.75 C 209.76 356.66, 208.82 356.42, 207.15 355.34 C 205.48 354.27, 204.72 353.39, 203.80 351.37 C 202.87 349.34, 202.66 348.01, 202.53 345.23 C 202.40 342.44, 202.40 340.75, 203.15 337.45 C 203.91 334.16, 204.70 332.27, 206.30 328.75 C 207.90 325.22, 208.94 323.30, 211.15 319.82 C 213.36 316.35, 214.70 314.62, 217.35 311.37 C 220.00 308.13, 221.72 306.26, 224.40 303.59 C 227.08 300.92, 228.22 299.90, 230.74 298.01 C 233.27 296.12, 234.93 295.49, 237.04 294.15 C 239.15 292.81, 239.92 292.30, 241.30 291.30 C 242.68 290.30, 243.57 289.94, 243.96 289.15 C 244.36 288.36, 244.14 287.65, 243.27 287.34" style="stroke: black; fill: black;"/><path d="M 681.14,253.07 C 680.53 253.60, 680.33 254.28, 679.87 255.83 C 679.41 257.39, 679.33 258.28, 678.82 260.84 C 678.31 263.41, 678.32 265.16, 677.33 268.65 C 676.34 272.15, 675.47 274.19, 673.86 278.31 C 672.25 282.43, 671.17 284.81, 669.29 289.25 C 667.40 293.70, 666.31 296.04, 664.42 300.54 C 662.54 305.04, 661.45 307.46, 659.87 311.76 C 658.28 316.05, 657.53 318.31, 656.49 322.03 C 655.45 325.74, 654.78 327.42, 654.68 330.32 C 654.57 333.23, 654.90 334.67, 655.98 336.56 C 657.06 338.45, 657.92 339.08, 660.07 339.78 C 662.23 340.49, 663.81 340.76, 666.75 340.08 C 669.68 339.41, 671.19 338.34, 674.74 336.42 C 678.30 334.49, 680.48 333.10, 684.50 330.44 C 688.52 327.79, 690.74 326.15, 694.84 323.15 C 698.95 320.16, 701.06 318.44, 705.01 315.47 C 708.97 312.50, 710.95 310.97, 714.61 308.30 C 718.28 305.63, 720.70 304.22, 723.35 302.13 C 726.00 300.04, 727.03 298.93, 727.86 297.85 C 728.69 296.78, 728.28 296.48, 727.51 296.75 C 726.74 297.02, 725.71 297.56, 724.01 299.22 C 722.31 300.87, 720.96 302.36, 718.99 305.03 C 717.03 307.70, 715.83 309.60, 714.18 312.56 C 712.54 315.52, 711.29 317.16, 710.76 319.83 C 710.23 322.50, 711.02 324.68, 711.53 325.91 C 712.04 327.14, 712.69 326.97, 713.29 325.99 C 713.90 325.01, 713.57 323.20, 714.57 321.02 C 715.56 318.84, 716.48 317.63, 718.25 315.09 C 720.03 312.55, 721.48 310.93, 723.43 308.33 C 725.38 305.74, 726.90 304.34, 728.01 302.12 C 729.12 299.89, 729.26 298.49, 728.98 297.23 C 728.71 295.97, 728.22 295.44, 726.64 295.82 C 725.05 296.19, 723.83 297.09, 721.06 299.11 C 718.29 301.13, 716.34 303.09, 712.80 305.93 C 709.27 308.76, 707.29 310.30, 703.37 313.29 C 699.44 316.27, 697.30 317.95, 693.19 320.84 C 689.07 323.73, 686.84 325.32, 682.80 327.74 C 678.76 330.16, 676.45 331.38, 673.01 332.95 C 669.57 334.52, 668.03 334.89, 665.59 335.60 C 663.14 336.32, 662.18 336.60, 660.78 336.54 C 659.38 336.47, 659.06 336.46, 658.61 335.26 C 658.17 334.07, 658.33 333.04, 658.55 330.56 C 658.77 328.07, 658.90 326.41, 659.72 322.85 C 660.54 319.29, 661.18 316.99, 662.64 312.75 C 664.10 308.50, 665.16 306.09, 667.03 301.63 C 668.90 297.17, 670.00 294.84, 671.99 290.44 C 673.97 286.03, 675.10 283.71, 676.95 279.62 C 678.81 275.53, 679.87 273.56, 681.28 270.00 C 682.69 266.44, 683.50 264.60, 684.00 261.82 C 684.51 259.05, 684.01 257.85, 683.79 256.13 C 683.57 254.40, 683.45 253.80, 682.92 253.19 C 682.39 252.58, 681.75 252.54, 681.14 253.07" style="stroke: black; fill: black;"/><path d="M 712.25,329.43 C 713.13 328.77, 713.97 327.04, 714.25 325.54 C 714.52 324.04, 714.14 322.71, 713.62 321.92 C 713.11 321.12, 712.41 321.04, 711.66 321.58 C 710.91 322.11, 710.25 323.15, 709.88 324.60 C 709.52 326.05, 709.38 327.87, 709.85 328.83 C 710.33 329.80, 711.37 330.09, 712.25 329.43" style="stroke: black; fill: black;"/><path d="M 726.10,284.26 C 726.60 283.94, 726.72 282.85, 726.30 282.43 C 725.88 282.02, 724.50 281.87, 724.00 282.19 C 723.50 282.50, 723.38 283.60, 723.80 284.02 C 724.23 284.43, 725.60 284.58, 726.10 284.26" style="stroke: black; fill: black;"/><path d="M 770.40,337.51 C 770.99 337.91, 771.51 337.88, 772.36 337.82 C 773.21 337.75, 773.70 337.71, 774.65 337.20 C 775.60 336.69, 776.57 336.25, 777.12 335.28 C 777.67 334.30, 777.66 333.12, 777.38 332.32 C 777.10 331.52, 776.40 331.42, 775.71 331.28 C 775.02 331.15, 774.70 331.45, 773.92 331.64 C 773.14 331.83, 772.58 331.76, 771.82 332.22 C 771.06 332.69, 770.60 333.25, 770.12 333.96 C 769.64 334.68, 769.37 335.09, 769.42 335.79 C 769.48 336.50, 769.81 337.10, 770.40 337.51" style="stroke: black; fill: black;"/></g></svg>