<svg id="canvas" width="374.027" height="131.749" viewBox="344.244 244.451 374.027 131.749" preserveAspectRatio="xMidYMid meet" class="h-full w-full max-w-4xl text-primary transition-opacity duration-300 opacity-100" xmlns="http://www.w3.org/2000/svg"><g id="canvas-strokes"><path d="M 367.57,247.72 C 366.59 248.28, 365.58 248.85, 364.19 251.40 C 362.79 253.95, 362.32 255.90, 360.60 260.47 C 358.88 265.05, 357.48 268.22, 355.59 274.27 C 353.71 280.33, 352.62 283.98, 351.17 290.74 C 349.71 297.50, 349.12 301.49, 348.34 308.07 C 347.55 314.65, 347.19 318.01, 347.25 323.64 C 347.31 329.26, 347.91 331.76, 348.62 336.21 C 349.34 340.65, 349.76 342.43, 350.82 345.87 C 351.88 349.30, 352.29 350.98, 353.93 353.39 C 355.57 355.79, 356.82 356.82, 359.01 357.87 C 361.21 358.93, 362.36 358.95, 364.89 358.67 C 367.42 358.38, 368.99 357.91, 371.66 356.45 C 374.33 354.98, 375.84 353.67, 378.25 351.36 C 380.66 349.05, 381.79 347.60, 383.71 344.88 C 385.64 342.16, 386.85 340.65, 387.87 337.76 C 388.88 334.87, 389.01 332.00, 388.79 330.42 C 388.56 328.84, 387.69 328.73, 386.73 329.86 C 385.77 331.00, 385.30 333.59, 383.99 336.08 C 382.68 338.57, 381.96 339.93, 380.18 342.31 C 378.40 344.68, 377.28 345.97, 375.08 347.95 C 372.88 349.93, 371.35 350.81, 369.17 352.20 C 366.98 353.58, 365.90 354.35, 364.16 354.88 C 362.43 355.41, 361.93 355.57, 360.51 354.84 C 359.09 354.12, 358.42 353.26, 357.08 351.26 C 355.74 349.26, 355.00 347.94, 353.81 344.84 C 352.63 341.73, 352.02 340.00, 351.16 335.75 C 350.30 331.50, 349.65 329.08, 349.50 323.59 C 349.35 318.11, 349.67 314.80, 350.43 308.32 C 351.19 301.84, 351.78 297.86, 353.30 291.21 C 354.82 284.56, 355.97 280.98, 358.02 275.07 C 360.07 269.17, 361.63 266.08, 363.56 261.67 C 365.48 257.27, 366.55 255.69, 367.65 253.07 C 368.74 250.45, 369.07 249.65, 369.05 248.58 C 369.03 247.51, 368.54 247.15, 367.57 247.72" style="stroke: black; fill: black;"/><path d="M 402.27,298.87 C 401.42 299.51, 400.47 300.43, 399.75 302.69 C 399.04 304.96, 398.86 306.62, 398.71 310.20 C 398.56 313.78, 398.71 316.44, 399.01 320.58 C 399.31 324.72, 399.69 326.88, 400.22 330.88 C 400.75 334.89, 401.03 337.16, 401.67 340.60 C 402.31 344.03, 402.54 345.85, 403.44 348.07 C 404.35 350.29, 405.08 350.91, 406.18 351.69 C 407.28 352.48, 408.19 352.24, 408.94 352.01 C 409.70 351.78, 409.98 350.98, 409.97 350.54 C 409.96 350.11, 409.17 349.83, 408.88 349.83 C 408.58 349.82, 408.67 350.46, 408.50 350.50 C 408.33 350.55, 408.28 350.79, 408.02 350.05 C 407.76 349.32, 407.69 348.87, 407.19 346.83 C 406.68 344.79, 406.18 343.13, 405.51 339.84 C 404.83 336.56, 404.32 334.30, 403.80 330.41 C 403.28 326.51, 403.02 324.38, 402.90 320.38 C 402.78 316.38, 403.03 313.78, 403.20 310.40 C 403.37 307.02, 403.59 305.66, 403.75 303.48 C 403.91 301.29, 404.31 300.41, 404.01 299.49 C 403.71 298.57, 403.12 298.23, 402.27 298.87" style="stroke: black; fill: black;"/><path d="M 394.72,262.72 C 394.88 262.05, 394.37 261.63, 393.78 261.84 C 393.19 262.05, 392.31 262.82, 391.75 263.76 C 391.19 264.69, 390.62 265.78, 390.99 266.51 C 391.35 267.24, 392.46 267.79, 393.58 267.40 C 394.69 267.01, 396.11 265.63, 396.58 264.56 C 397.05 263.48, 396.54 262.37, 395.93 262.03 C 395.32 261.68, 394.29 262.28, 393.54 262.83 C 392.79 263.39, 392.28 264.34, 392.17 264.81 C 392.06 265.28, 392.47 265.59, 392.97 265.17 C 393.48 264.75, 394.55 263.39, 394.72 262.72" style="stroke: black; fill: black;"/><path d="M 533.94,300.94 C 533.40 301.68, 532.79 302.16, 532.81 304.58 C 532.84 306.99, 533.13 309.00, 534.06 313.00 C 534.98 317.00, 535.60 319.45, 537.42 324.58 C 539.24 329.70, 540.68 333.25, 543.16 338.63 C 545.63 344.02, 547.13 347.12, 549.81 351.51 C 552.49 355.91, 553.92 357.77, 556.54 360.62 C 559.17 363.48, 560.58 364.65, 562.94 365.79 C 565.29 366.94, 566.59 366.99, 568.31 366.35 C 570.03 365.70, 570.68 364.78, 571.55 362.58 C 572.42 360.38, 572.56 359.03, 572.67 355.33 C 572.77 351.63, 572.36 349.06, 572.06 344.07 C 571.77 339.09, 571.41 335.51, 571.20 330.41 C 570.98 325.30, 571.14 322.70, 570.98 318.54 C 570.83 314.39, 570.97 312.29, 570.41 309.65 C 569.85 307.01, 569.06 305.76, 568.18 305.34 C 567.29 304.91, 566.45 305.67, 565.97 307.51 C 565.49 309.36, 565.13 310.96, 565.77 314.54 C 566.40 318.13, 567.25 320.50, 569.14 325.42 C 571.03 330.34, 572.53 333.96, 575.20 339.14 C 577.87 344.33, 579.34 347.11, 582.49 351.34 C 585.64 355.56, 587.67 357.61, 590.93 360.28 C 594.20 362.94, 595.84 363.91, 598.81 364.66 C 601.78 365.41, 603.52 365.14, 605.79 364.03 C 608.05 362.92, 609.01 361.68, 610.13 359.10 C 611.25 356.53, 611.29 354.92, 611.41 351.14 C 611.53 347.35, 611.19 345.06, 610.73 340.20 C 610.27 335.34, 609.84 332.22, 609.12 326.83 C 608.40 321.43, 607.92 317.99, 607.14 313.21 C 606.35 308.43, 606.01 305.86, 605.21 302.91 C 604.41 299.96, 603.71 299.34, 603.15 298.45 C 602.58 297.56, 602.71 297.96, 602.38 298.44 C 602.06 298.92, 601.41 299.91, 601.52 300.84 C 601.64 301.78, 602.08 302.90, 602.96 303.10 C 603.85 303.30, 605.47 302.60, 605.96 301.85 C 606.46 301.11, 605.97 300.20, 605.43 299.38 C 604.89 298.55, 604.08 297.87, 603.25 297.73 C 602.41 297.58, 601.58 297.45, 601.25 298.65 C 600.91 299.86, 600.98 300.73, 601.55 303.75 C 602.13 306.77, 603.20 309.06, 604.14 313.75 C 605.08 318.45, 605.56 321.86, 606.24 327.20 C 606.92 332.54, 607.27 335.69, 607.54 340.44 C 607.82 345.20, 607.83 347.51, 607.64 350.97 C 607.44 354.43, 607.21 355.68, 606.57 357.75 C 605.93 359.83, 605.81 360.63, 604.44 361.33 C 603.07 362.04, 602.05 361.96, 599.72 361.28 C 597.38 360.61, 595.78 360.28, 592.76 357.97 C 589.75 355.66, 587.66 353.74, 584.64 349.73 C 581.63 345.71, 580.15 342.99, 577.68 337.90 C 575.20 332.82, 573.85 329.13, 572.28 324.31 C 570.72 319.48, 570.50 317.15, 569.84 313.78 C 569.19 310.42, 569.49 309.12, 569.00 307.50 C 568.50 305.89, 567.83 305.18, 567.37 305.70 C 566.91 306.22, 566.61 307.50, 566.69 310.10 C 566.77 312.70, 567.46 314.63, 567.74 318.72 C 568.03 322.80, 567.93 325.43, 568.11 330.53 C 568.29 335.63, 568.55 339.27, 568.64 344.21 C 568.74 349.15, 568.70 351.72, 568.59 355.21 C 568.49 358.70, 568.33 359.84, 568.12 361.65 C 567.91 363.46, 568.25 364.00, 567.54 364.26 C 566.83 364.51, 566.30 364.06, 564.55 362.91 C 562.80 361.76, 561.28 361.07, 558.79 358.50 C 556.30 355.94, 554.74 354.29, 552.11 350.09 C 549.47 345.90, 547.95 342.83, 545.59 337.53 C 543.23 332.24, 541.87 328.68, 540.32 323.62 C 538.77 318.56, 538.52 316.12, 537.82 312.23 C 537.12 308.34, 537.27 306.43, 536.81 304.16 C 536.35 301.90, 536.09 301.55, 535.51 300.90 C 534.94 300.26, 534.48 300.21, 533.94 300.94" style="stroke: black; fill: black;"/><path d="M 634.03,337.33 C 634.35 337.95, 634.78 338.47, 636.05 338.74 C 637.32 339.01, 638.26 339.20, 640.37 338.67 C 642.47 338.14, 643.86 337.67, 646.57 336.10 C 649.28 334.54, 650.71 333.11, 653.92 330.85 C 657.13 328.60, 659.37 327.38, 662.61 324.82 C 665.86 322.25, 667.77 320.68, 670.14 318.04 C 672.50 315.40, 673.48 314.07, 674.46 311.63 C 675.43 309.19, 675.56 308.04, 675.02 305.83 C 674.48 303.62, 673.82 302.19, 671.75 300.58 C 669.68 298.98, 667.99 298.19, 664.68 297.80 C 661.36 297.42, 659.39 297.79, 655.17 298.64 C 650.95 299.49, 648.39 300.01, 643.58 302.07 C 638.77 304.12, 635.79 305.52, 631.14 308.91 C 626.48 312.31, 623.90 314.65, 620.31 319.06 C 616.72 323.47, 614.95 326.10, 613.19 330.96 C 611.43 335.83, 611.04 338.59, 611.52 343.38 C 612.00 348.17, 612.97 350.89, 615.60 354.93 C 618.22 358.97, 620.36 360.78, 624.64 363.59 C 628.93 366.41, 631.75 367.25, 637.03 369.00 C 642.32 370.75, 645.56 371.50, 651.06 372.34 C 656.56 373.18, 659.27 373.19, 664.51 373.20 C 669.76 373.21, 672.68 372.86, 677.28 372.40 C 681.88 371.94, 684.30 371.63, 687.52 370.91 C 690.75 370.18, 691.72 369.62, 693.39 368.79 C 695.06 367.97, 695.39 367.60, 695.86 366.77 C 696.32 365.95, 695.99 365.19, 695.71 364.67 C 695.42 364.15, 694.78 364.00, 694.45 364.16 C 694.12 364.33, 694.02 365.22, 694.05 365.49 C 694.07 365.77, 694.46 365.52, 694.57 365.53 C 694.68 365.53, 695.06 365.43, 694.61 365.51 C 694.16 365.58, 693.90 365.54, 692.32 365.91 C 690.74 366.29, 689.79 366.66, 686.71 367.38 C 683.63 368.11, 681.37 368.89, 676.93 369.55 C 672.48 370.20, 669.60 370.58, 664.50 370.65 C 659.40 370.72, 656.77 370.70, 651.43 369.90 C 646.10 369.09, 642.90 368.30, 637.82 366.61 C 632.75 364.92, 630.06 364.06, 626.05 361.44 C 622.04 358.82, 620.17 357.17, 617.77 353.51 C 615.37 349.85, 614.51 347.46, 614.05 343.12 C 613.60 338.78, 613.88 336.31, 615.51 331.81 C 617.15 327.31, 618.79 324.78, 622.22 320.62 C 625.65 316.47, 628.16 314.19, 632.65 311.02 C 637.14 307.84, 640.05 306.54, 644.68 304.76 C 649.30 302.98, 651.86 302.62, 655.76 302.10 C 659.65 301.58, 661.39 301.81, 664.15 302.15 C 666.90 302.50, 667.96 302.95, 669.53 303.83 C 671.10 304.72, 671.68 305.33, 672.01 306.59 C 672.34 307.85, 672.14 308.36, 671.18 310.12 C 670.22 311.87, 669.40 313.03, 667.22 315.37 C 665.03 317.71, 663.38 319.41, 660.27 321.81 C 657.16 324.21, 654.89 325.44, 651.66 327.37 C 648.42 329.31, 646.67 330.21, 644.09 331.50 C 641.51 332.79, 640.40 333.10, 638.76 333.81 C 637.11 334.53, 636.74 334.71, 635.87 335.08 C 635.00 335.45, 634.79 335.22, 634.42 335.67 C 634.05 336.12, 633.70 336.72, 634.03 337.33" style="stroke: black; fill: black;"/><path d="M 709.83,314.94 C 709.22 315.24, 708.75 315.27, 708.16 316.75 C 707.57 318.23, 706.96 319.59, 706.87 322.33 C 706.79 325.08, 707.39 326.90, 707.71 330.48 C 708.04 334.06, 708.17 336.29, 708.51 340.25 C 708.85 344.21, 708.87 346.87, 709.42 350.29 C 709.97 353.70, 710.29 355.30, 711.25 357.33 C 712.20 359.36, 713.37 359.94, 714.18 360.43 C 714.98 360.92, 715.24 360.60, 715.27 359.78 C 715.30 358.97, 714.65 358.36, 714.31 356.35 C 713.98 354.34, 713.94 353.01, 713.59 349.73 C 713.23 346.45, 712.79 343.84, 712.54 339.95 C 712.28 336.06, 712.31 333.80, 712.33 330.28 C 712.35 326.77, 712.68 324.99, 712.63 322.37 C 712.57 319.75, 712.33 318.59, 712.05 317.16 C 711.77 315.74, 711.67 315.71, 711.23 315.26 C 710.78 314.82, 710.45 314.65, 709.83 314.94" style="stroke: black; fill: black;"/><path d="M 692.71,283.65 C 693.34 283.35, 693.41 282.84, 693.70 282.40 C 693.98 281.96, 694.09 281.80, 694.14 281.44 C 694.18 281.08, 694.24 280.85, 693.92 280.59 C 693.61 280.33, 693.12 280.18, 692.56 280.13 C 692.00 280.08, 691.28 280.10, 691.12 280.34 C 690.96 280.58, 690.98 281.26, 691.75 281.32 C 692.52 281.39, 694.33 281.20, 694.98 280.66 C 695.63 280.13, 695.52 279.23, 695.01 278.66 C 694.50 278.09, 693.49 277.84, 692.43 277.82 C 691.37 277.79, 690.45 277.95, 689.71 278.55 C 688.98 279.15, 688.85 279.99, 688.75 280.82 C 688.66 281.65, 688.90 282.07, 689.25 282.69 C 689.60 283.30, 689.83 283.70, 690.52 283.90 C 691.21 284.09, 692.07 283.94, 692.71 283.65" style="stroke: black; fill: black;"/></g></svg>