<svg id="canvas" width="353.322" height="122.101" viewBox="335.132 245.602 353.322 122.101" preserveAspectRatio="xMidYMid meet" class="h-full w-full max-w-4xl text-primary transition-opacity duration-300 opacity-100" xmlns="http://www.w3.org/2000/svg"><g id="canvas-strokes"><path d="M 339.26,249.13 C 338.72 249.83, 338.38 250.35, 338.21 252.61 C 338.04 254.87, 338.17 256.37, 338.40 260.44 C 338.62 264.51, 338.91 267.45, 339.32 272.95 C 339.74 278.46, 339.94 281.71, 340.48 287.96 C 341.02 294.21, 341.40 297.91, 342.02 304.20 C 342.65 310.49, 342.77 313.76, 343.60 319.42 C 344.43 325.08, 345.22 327.72, 346.18 332.50 C 347.14 337.28, 347.42 339.29, 348.41 343.31 C 349.39 347.33, 349.95 349.68, 351.11 352.60 C 352.27 355.52, 353.05 356.13, 354.19 357.92 C 355.32 359.71, 355.71 360.53, 356.78 361.57 C 357.86 362.60, 358.43 363.01, 359.57 363.09 C 360.71 363.18, 361.55 362.67, 362.48 362.00 C 363.41 361.34, 364.00 360.74, 364.21 359.76 C 364.42 358.78, 364.18 357.71, 363.53 357.11 C 362.87 356.50, 361.70 356.46, 360.93 356.75 C 360.15 357.05, 359.84 357.94, 359.63 358.58 C 359.43 359.22, 359.85 359.50, 359.89 359.94 C 359.94 360.38, 359.98 360.86, 359.85 360.79 C 359.71 360.73, 359.73 360.55, 359.21 359.61 C 358.69 358.67, 358.20 357.78, 357.26 356.09 C 356.32 354.40, 355.72 353.88, 354.52 351.17 C 353.32 348.46, 352.44 346.37, 351.25 342.53 C 350.07 338.69, 349.68 336.67, 348.60 331.97 C 347.52 327.28, 346.73 324.67, 345.86 319.08 C 344.99 313.48, 344.84 310.25, 344.25 303.99 C 343.66 297.73, 343.29 294.01, 342.89 287.78 C 342.49 281.54, 342.39 278.30, 342.26 272.81 C 342.13 267.31, 342.27 264.37, 342.23 260.31 C 342.18 256.26, 342.30 254.77, 342.04 252.53 C 341.77 250.28, 341.44 249.79, 340.88 249.11 C 340.33 248.43, 339.79 248.43, 339.26 249.13" style="stroke: black; fill: black;"/><path d="M 378.77,321.91 C 378.39 322.29, 378.49 322.41, 378.39 323.25 C 378.30 324.09, 377.95 324.52, 378.30 326.09 C 378.65 327.67, 379.35 328.85, 380.16 331.11 C 380.97 333.36, 381.31 334.83, 382.35 337.38 C 383.38 339.93, 384.24 341.45, 385.33 343.85 C 386.42 346.26, 386.83 347.60, 387.80 349.40 C 388.77 351.21, 389.44 351.85, 390.20 352.88 C 390.95 353.91, 391.08 354.30, 391.58 354.55 C 392.08 354.80, 392.37 354.57, 392.69 354.15 C 393.01 353.73, 393.35 352.92, 393.19 352.46 C 393.03 352.00, 392.63 351.54, 391.88 351.85 C 391.13 352.15, 389.80 353.24, 389.44 354.00 C 389.08 354.75, 389.51 355.35, 390.11 355.63 C 390.70 355.91, 391.69 355.72, 392.43 355.40 C 393.17 355.07, 393.58 354.82, 393.80 353.98 C 394.03 353.15, 393.93 352.50, 393.54 351.22 C 393.15 349.94, 392.53 349.42, 391.84 347.57 C 391.16 345.71, 390.93 344.39, 390.10 341.96 C 389.28 339.53, 388.56 338.02, 387.72 335.43 C 386.88 332.83, 386.79 331.26, 385.92 328.97 C 385.04 326.68, 384.22 325.35, 383.34 323.97 C 382.45 322.60, 382.08 322.62, 381.47 322.09 C 380.86 321.56, 380.84 321.37, 380.30 321.33 C 379.76 321.29, 379.15 321.52, 378.77 321.91" style="stroke: black; fill: black;"/><path d="M 369.21,293.47 C 369.80 293.31, 369.73 292.85, 369.48 292.91 C 369.23 292.97, 368.15 293.57, 367.95 293.77 C 367.74 293.97, 368.05 294.35, 368.47 293.91 C 368.88 293.47, 370.00 292.27, 370.02 291.56 C 370.03 290.86, 369.34 290.30, 368.54 290.39 C 367.75 290.49, 366.45 291.37, 366.04 292.04 C 365.63 292.70, 365.88 293.42, 366.51 293.71 C 367.14 294.00, 368.62 293.63, 369.21 293.47" style="stroke: black; fill: black;"/><path d="M 482.67,322.55 C 482.30 323.33, 482.33 323.99, 482.52 325.88 C 482.71 327.78, 482.74 329.16, 483.63 332.02 C 484.52 334.89, 485.41 336.93, 486.99 340.21 C 488.57 343.49, 489.55 345.60, 491.54 348.44 C 493.54 351.27, 494.71 352.42, 496.96 354.37 C 499.21 356.33, 500.39 357.18, 502.78 358.20 C 505.16 359.22, 506.54 359.47, 508.89 359.47 C 511.23 359.48, 512.37 359.23, 514.52 358.22 C 516.66 357.22, 517.81 356.50, 519.61 354.43 C 521.42 352.35, 522.49 350.42, 523.54 347.85 C 524.59 345.28, 524.66 343.27, 524.86 341.57 C 525.07 339.86, 524.58 339.33, 524.55 339.33 C 524.52 339.34, 524.32 340.01, 524.72 341.60 C 525.12 343.19, 525.30 344.92, 526.53 347.28 C 527.76 349.65, 528.89 351.38, 530.86 353.43 C 532.82 355.48, 534.11 356.33, 536.37 357.53 C 538.63 358.73, 539.85 359.25, 542.13 359.44 C 544.41 359.62, 545.66 359.45, 547.76 358.44 C 549.86 357.43, 550.92 356.54, 552.64 354.39 C 554.37 352.24, 555.32 350.72, 556.39 347.71 C 557.46 344.70, 557.69 342.71, 557.98 339.34 C 558.28 335.97, 558.23 333.87, 557.87 330.85 C 557.52 327.84, 557.07 326.35, 556.20 324.26 C 555.34 322.16, 554.60 321.45, 553.56 320.38 C 552.52 319.31, 551.98 318.99, 551.01 318.91 C 550.03 318.84, 549.07 319.43, 548.67 320.00 C 548.28 320.58, 548.63 321.56, 549.04 321.81 C 549.45 322.05, 550.47 321.41, 550.73 321.22 C 550.98 321.02, 550.41 320.87, 550.33 320.84 C 550.25 320.80, 550.18 320.76, 550.30 321.05 C 550.42 321.33, 550.56 321.37, 550.94 322.27 C 551.33 323.18, 551.81 323.75, 552.23 325.56 C 552.65 327.37, 552.82 328.67, 553.04 331.34 C 553.26 334.02, 553.59 335.99, 553.33 338.93 C 553.07 341.88, 552.65 343.53, 551.75 346.06 C 550.86 348.59, 550.02 349.81, 548.85 351.60 C 547.68 353.38, 547.15 354.19, 545.90 354.99 C 544.64 355.80, 544.00 355.89, 542.57 355.64 C 541.14 355.39, 540.24 354.93, 538.75 353.77 C 537.26 352.60, 536.51 351.74, 535.11 349.83 C 533.72 347.91, 533.19 346.25, 531.78 344.17 C 530.38 342.09, 529.55 340.73, 528.09 339.43 C 526.63 338.14, 525.90 337.63, 524.47 337.70 C 523.05 337.78, 522.23 338.24, 520.96 339.81 C 519.69 341.38, 519.18 343.19, 518.13 345.54 C 517.08 347.89, 516.80 349.71, 515.71 351.55 C 514.63 353.39, 514.07 353.93, 512.71 354.73 C 511.35 355.53, 510.58 355.59, 508.93 355.55 C 507.27 355.51, 506.26 355.41, 504.44 354.53 C 502.62 353.65, 501.70 352.85, 499.83 351.15 C 497.96 349.44, 496.80 348.57, 495.09 346.00 C 493.39 343.43, 492.56 341.44, 491.29 338.30 C 490.02 335.16, 489.71 333.03, 488.74 330.32 C 487.76 327.60, 487.30 326.37, 486.42 324.71 C 485.54 323.05, 485.10 322.45, 484.34 322.02 C 483.59 321.59, 483.03 321.78, 482.67 322.55" style="stroke: black; fill: black;"/><path d="M 578.65,346.22 C 579.15 346.98, 579.95 347.70, 581.71 348.21 C 583.46 348.73, 584.74 349.07, 587.42 348.78 C 590.10 348.48, 592.09 347.88, 595.11 346.74 C 598.14 345.59, 599.61 344.64, 602.56 343.04 C 605.50 341.44, 607.23 340.53, 609.84 338.74 C 612.45 336.94, 613.81 336.01, 615.59 334.07 C 617.36 332.14, 618.14 331.06, 618.72 329.05 C 619.30 327.04, 619.27 325.82, 618.49 324.02 C 617.71 322.22, 616.98 321.15, 614.83 320.06 C 612.68 318.97, 611.01 318.39, 607.74 318.57 C 604.47 318.74, 602.11 319.48, 598.50 320.95 C 594.89 322.42, 592.82 323.71, 589.69 325.93 C 586.55 328.15, 584.97 329.43, 582.81 332.05 C 580.65 334.68, 579.66 336.15, 578.89 339.05 C 578.12 341.95, 578.19 343.78, 578.96 346.55 C 579.73 349.33, 580.52 350.69, 582.72 352.91 C 584.92 355.12, 586.48 355.90, 589.96 357.63 C 593.44 359.36, 595.66 360.36, 600.12 361.58 C 604.58 362.79, 607.27 363.10, 612.25 363.71 C 617.24 364.31, 619.98 364.45, 625.05 364.58 C 630.12 364.72, 632.86 364.83, 637.60 364.39 C 642.33 363.95, 644.75 363.36, 648.73 362.39 C 652.71 361.42, 654.58 360.84, 657.49 359.53 C 660.41 358.22, 661.72 357.32, 663.30 355.83 C 664.88 354.34, 665.27 353.14, 665.39 352.07 C 665.51 350.99, 664.72 350.41, 663.90 350.45 C 663.08 350.50, 661.73 351.19, 661.29 352.30 C 660.84 353.41, 660.93 354.81, 661.67 356.00 C 662.40 357.19, 663.41 357.81, 664.96 358.25 C 666.52 358.69, 667.65 358.74, 669.44 358.19 C 671.23 357.65, 672.03 356.89, 673.94 355.52 C 675.84 354.16, 677.06 353.55, 678.96 351.37 C 680.85 349.19, 682.17 347.38, 683.42 344.60 C 684.66 341.83, 684.79 339.88, 685.18 337.51 C 685.58 335.13, 685.43 334.39, 685.41 332.74 C 685.39 331.09, 685.39 330.21, 685.08 329.26 C 684.78 328.30, 684.12 328.24, 683.89 327.98 C 683.65 327.72, 683.91 328.08, 683.92 327.96 C 683.94 327.83, 684.30 327.54, 683.96 327.35 C 683.63 327.16, 682.65 326.96, 682.27 327.01 C 681.89 327.06, 682.13 327.29, 682.07 327.62 C 682.00 327.94, 681.94 328.21, 681.93 328.62 C 681.92 329.04, 682.08 328.94, 682.02 329.70 C 681.96 330.46, 681.92 331.08, 681.65 332.42 C 681.38 333.76, 681.30 334.45, 680.65 336.41 C 680.00 338.37, 679.57 339.92, 678.40 342.20 C 677.22 344.48, 676.31 345.98, 674.78 347.82 C 673.26 349.65, 672.19 350.18, 670.76 351.37 C 669.33 352.56, 668.61 353.17, 667.62 353.76 C 666.64 354.36, 666.19 354.33, 665.83 354.34 C 665.46 354.36, 665.84 354.12, 665.81 353.84 C 665.77 353.55, 665.86 353.46, 665.65 352.94 C 665.45 352.41, 665.20 351.61, 664.77 351.20 C 664.34 350.79, 664.28 350.54, 663.51 350.89 C 662.74 351.23, 662.45 351.87, 660.92 352.91 C 659.40 353.95, 658.47 354.80, 655.87 356.09 C 653.27 357.37, 651.62 358.25, 647.91 359.35 C 644.20 360.45, 641.87 361.07, 637.31 361.57 C 632.76 362.07, 630.07 361.98, 625.13 361.83 C 620.19 361.68, 617.45 361.50, 612.63 360.83 C 607.81 360.15, 605.21 359.75, 601.03 358.45 C 596.84 357.15, 594.76 356.04, 591.69 354.33 C 588.62 352.63, 587.48 351.71, 585.68 349.94 C 583.88 348.17, 583.28 347.45, 582.69 345.49 C 582.10 343.52, 582.09 342.28, 582.72 340.11 C 583.35 337.93, 584.01 336.77, 585.86 334.59 C 587.71 332.41, 589.12 331.13, 591.96 329.21 C 594.79 327.29, 596.81 326.13, 600.04 324.99 C 603.26 323.86, 605.43 323.77, 608.09 323.53 C 610.74 323.30, 611.82 323.47, 613.33 323.83 C 614.83 324.20, 615.18 324.56, 615.61 325.36 C 616.05 326.16, 616.11 326.70, 615.49 327.83 C 614.88 328.95, 614.18 329.56, 612.55 330.99 C 610.91 332.42, 609.72 333.38, 607.30 334.99 C 604.88 336.60, 603.23 337.64, 600.46 339.03 C 597.69 340.42, 596.21 341.06, 593.44 341.94 C 590.67 342.82, 588.87 342.97, 586.60 343.43 C 584.33 343.89, 583.58 344.05, 582.10 344.24 C 580.62 344.43, 579.90 344.00, 579.21 344.40 C 578.52 344.80, 578.15 345.46, 578.65 346.22" style="stroke: black; fill: black;"/><path d="M 673.68,311.77 C 673.65 310.77, 673.15 309.63, 672.08 308.27 C 671.02 306.90, 669.53 305.28, 668.34 304.94 C 667.14 304.61, 666.10 305.30, 666.11 306.59 C 666.12 307.89, 667.17 310.07, 668.40 311.40 C 669.62 312.73, 671.16 313.17, 672.21 313.25 C 673.27 313.32, 673.70 312.76, 673.68 311.77" style="stroke: black; fill: black;"/></g></svg>